<svg width="743" height="1095" viewBox="0 0 743 1095" fill="none" xmlns="http://www.w3.org/2000/svg">
<g opacity="0.7" filter="url(#filter0_d_1_57)">
<g opacity="0.5">
<g opacity="0.6" filter="url(#filter1_f_1_57)">
<ellipse cx="324" cy="547.5" rx="219" ry="347.5" fill="#2253F5"/>
<path d="M542.5 547.5C542.5 643.38 518.007 730.159 478.433 792.953C438.856 855.753 384.243 894.5 324 894.5C263.757 894.5 209.144 855.753 169.567 792.953C129.993 730.159 105.5 643.38 105.5 547.5C105.5 451.62 129.993 364.841 169.567 302.047C209.144 239.247 263.757 200.5 324 200.5C384.243 200.5 438.856 239.247 478.433 302.047C518.007 364.841 542.5 451.62 542.5 547.5Z" stroke="black"/>
</g>
</g>
</g>
<defs>
<filter id="filter0_d_1_57" x="101" y="200" width="446" height="703" filterUnits="userSpaceOnUse" color-interpolation-filters="sRGB">
<feFlood flood-opacity="0" result="BackgroundImageFix"/>
<feColorMatrix in="SourceAlpha" type="matrix" values="0 0 0 0 0 0 0 0 0 0 0 0 0 0 0 0 0 0 127 0" result="hardAlpha"/>
<feOffset dy="4"/>
<feGaussianBlur stdDeviation="2"/>
<feComposite in2="hardAlpha" operator="out"/>
<feColorMatrix type="matrix" values="0 0 0 0 0 0 0 0 0 0 0 0 0 0 0 0 0 0 0.25 0"/>
<feBlend mode="normal" in2="BackgroundImageFix" result="effect1_dropShadow_1_57"/>
<feBlend mode="normal" in="SourceGraphic" in2="effect1_dropShadow_1_57" result="shape"/>
</filter>
<filter id="filter1_f_1_57" x="-95" y="0" width="838" height="1095" filterUnits="userSpaceOnUse" color-interpolation-filters="sRGB">
<feFlood flood-opacity="0" result="BackgroundImageFix"/>
<feBlend mode="normal" in="SourceGraphic" in2="BackgroundImageFix" result="shape"/>
<feGaussianBlur stdDeviation="100" result="effect1_foregroundBlur_1_57"/>
</filter>
</defs>
</svg>
